<?xml version="1.0" encoding="UTF-8" standalone="no"?>
<svg
   xmlns:dc="http://purl.org/dc/elements/1.1/"
   xmlns:cc="http://creativecommons.org/ns#"
   xmlns:rdf="http://www.w3.org/1999/02/22-rdf-syntax-ns#"
   xmlns:svg="http://www.w3.org/2000/svg"
   xmlns="http://www.w3.org/2000/svg"
   id="svg4499"
   version="1.1"
   viewBox="0 0 66.449981 47.390846"
   height="47.390846mm"
   width="66.449982mm">
  <defs
     id="defs4493" />
  <metadata
     id="metadata4496">
    <rdf:RDF>
      <cc:Work
         rdf:about="">
        <dc:format>image/svg+xml</dc:format>
        <dc:type
           rdf:resource="http://purl.org/dc/dcmitype/StillImage" />
        <dc:title></dc:title>
      </cc:Work>
    </rdf:RDF>
  </metadata>
  <path
     id="path5060"
     d="m 25.017305,47.010153 c -6.083299,-0.64001 -8.974699,-3.24754 -5.302473,-4.781896 3.799453,-1.587514 17.025848,-3.396899 25.610698,-3.503571 6.110849,-0.07594 7.405444,0.294302 6.430972,1.83916 -0.390498,0.619075 -1.363287,0.771203 -5.418944,0.847434 -5.300223,0.09962 -19.526272,1.766143 -21.150954,2.477743 -1.954234,0.85593 16.688489,0.12824 22.315702,-0.87107 9.258146,-1.644103 15.382492,-4.020975 15.382492,-5.969978 0,-2.257873 -13.32046,-5.089766 -30.764982,-6.540547 -4.85227,-0.403543 -10.748818,-1.01765 -13.10344,-1.364686 l -4.28113,-0.630972 -2.946278,1.451382 c -2.4805069,1.221935 -3.5596859,1.475849 -6.8264489,1.606146 -3.129314,0.124809 -3.99585005,0.01539 -4.47796405,-0.565532 -0.478501,-0.576557 -0.48539800051,-0.855723 -0.03457,-1.398935 0.41269,-0.497263 1.50788605,-0.67864 4.09777905,-0.67864 1.944008,0 4.107692,-0.225713 4.808185,-0.501585 1.4509239,-0.571408 1.8378339,-0.324867 -3.806354,-2.425431 -5.50911505,-2.050296 -7.075768,-5.142344 -3.98185,-7.858842 C 4.4076191,15.646892 15.832396,12.768862 26.340327,11.89984 L 30.0839,11.590241 34.834375,7.7359602 c 2.612762,-2.119855 4.954067,-4.047709 5.2029,-4.284117 0.846106,-0.803858 -9.19569,0.061 -11.241792,0.968209 -2.70479,1.199258 -3.309663,2.067945 -2.6524,3.809236 0.697132,1.8469128 0.05814,2.5998548 -2.206416,2.5998548 -4.23981,0 -3.101476,-4.9855028 1.689887,-7.4011138 2.223816,-1.121158 5.233806,-1.658072 13.053443,-2.328445 3.981351,-0.34131902 7.729055,-0.76705302 8.32823,-0.94607502 0.989918,-0.295772 1.058669,-0.226006 0.752797,0.763913 -0.285006,0.92237802 -1.972692,7.50334502 -2.724733,10.62482182 -0.18904,0.784667 0.176818,1.1064 2.222201,1.954163 3.034526,1.257742 6.125357,4.427814 6.125357,6.2824 0,1.508904 -2.12987,3.772222 -4.524263,4.807736 -1.545921,0.668572 -1.553969,0.685241 -0.339319,0.70253 0.796442,0.01128 1.244172,0.261924 1.244172,0.696347 0,0.575885 -1.133183,0.678639 -7.484101,0.678639 h -7.484105 l 1.115234,-1.922811 c 0.613379,-1.057547 1.331246,-3.042566 1.595262,-4.411155 0.264015,-1.368588 0.660898,-3.231565 0.881962,-4.139948 0.387412,-1.591939 0.352945,-1.6614 -0.954105,-1.922811 -0.745822,-0.149158 -2.399446,-0.270159 -3.674723,-0.268878 -2.20034,0.0022 -2.459132,0.134984 -5.070438,2.60145 -1.513464,1.429516 -4.543397,4.122612 -6.733186,5.984652 l -3.981432,3.385531 1.530285,0.326987 c 0.841656,0.17984 4.991345,0.642809 9.221529,1.028814 21.126823,1.92783 29.016648,3.292938 34.193386,5.916189 5.177339,2.623557 4.6151,6.245342 -1.393821,8.978589 -4.941051,2.247505 -13.92875,4.045385 -23.977254,4.796345 -6.688876,0.49989 -7.720393,0.49932 -12.531626,-0.007 z M 17.790849,22.647919 c 1.78449,-1.462372 4.567873,-3.909268 6.185296,-5.437544 l 2.940771,-2.778686 -2.262132,0.2763 c -6.978243,0.852335 -18.2330259,3.83297 -20.5009919,5.429331 -1.011498,0.711968 -1.019408,0.766841 -0.235398,1.633164 1.235039,1.364703 6.8341119,3.363448 9.8006199,3.498605 0.455023,0.02072 2.287348,-1.158796 4.071835,-2.62117 z m 27.065493,2.258402 c -1.063328,-0.673861 -0.356925,-1.927486 1.431743,-2.540851 1.89153,-0.648639 3.476353,-1.879303 3.476353,-2.69949 0,-1.377518 -5.262852,-4.888574 -5.640295,-3.762864 -0.261166,0.778923 -1.598524,8.202583 -1.598524,8.87339 0,0.298063 0.643893,0.527242 1.470385,0.523346 0.989502,-0.0046 1.27087,-0.133359 0.860338,-0.393531 z M 39.826211,9.8680342 c 0.276348,-1.026279 0.697862,-2.379936 0.9367,-3.008128 0.499414,-1.313556 0.59673,-1.371307 -3.626925,2.15241 l -2.448861,2.0430398 1.996435,0.271368 c 1.098041,0.149246 2.141283,0.301946 2.318317,0.339319 0.177034,0.03737 0.547985,-0.771731 0.824334,-1.7980088 z"
     style="opacity:1;fill:#ffffff;fill-opacity:1;fill-rule:nonzero;stroke:none;stroke-width:0.45242617;stroke-opacity:1" />
</svg>
